<?xml version="1.0" standalone="no"?><!DOCTYPE svg PUBLIC "-//W3C//DTD SVG 1.1//EN" "http://www.w3.org/Graphics/SVG/1.1/DTD/svg11.dtd"><svg t="1717566530076" class="icon" viewBox="0 0 1364 1024" version="1.1" xmlns="http://www.w3.org/2000/svg" p-id="3144" xmlns:xlink="http://www.w3.org/1999/xlink" width="266.40625" height="200"><path d="M496.721891 541.211745C347.485319 541.211745 226.116018 419.842444 226.116018 270.605873s121.369301-270.605873 270.605873-270.605873c149.114347 0 270.483648 121.369301 270.483647 270.605873s-121.369301 270.605873-270.483647 270.605872z m0-522.878014C357.629983 18.333731 244.449749 131.513965 244.449749 270.605873s113.180234 252.272141 252.272142 252.272141c139.091907 0 252.272141-113.180234 252.272141-252.272141s-113.180234-252.272141-252.272141-252.272142z" fill="#070606" p-id="3145"></path><path d="M976.943423 1024h-18.211506c0-259.116734-210.715684-469.832418-469.832418-469.832418-259.116734 0-469.832418 210.715684-469.832419 469.832418H0.855574C0.855574 754.860826 219.760325 535.956075 488.899499 535.956075c269.139174 0 488.043925 218.904751 488.043924 488.043925z" fill="#070606" p-id="3146"></path><path d="M74.801623 1024c0-243.105276 201.671043-448.076391 439.52065-456.143232 243.47195-8.311291 430.964908 180.892815 448.07639 456.143232M752.416328 273.905944c0 131.88064-108.657914 245.305323-236.382907 245.305324-127.847219 0-231.371688-106.946765-231.371688-238.827406 0-132.002865 117.33588-255.694438 245.183099-255.694437 127.724994 0 222.571497 117.33588 222.571496 249.216519z" fill="#E9B135" p-id="3147"></path><path d="M696.315111 109.146813c0.366675 6.600143 0.488899 13.200286 0.4889 19.80043 0 170.25925-103.280019 316.440201-250.560994 379.263786 22.000477 7.211268 45.467653 11.122464 69.790404 11.122463 127.724994 0 236.382908-113.424684 236.382907-245.305323 0-61.845787-20.900454-120.147052-56.101217-164.881356z" fill="#D78E14" p-id="3148"></path></svg>